PathFileType	4	(X/Y/Z)	E:/New_biomech_experiments/27_06_2024_Shreyas_Arm26_updated ground/Afternoon session/Neeraj_PP_27_6_24_elbow_flexion_t01.trc										
DataRate	CameraRate	NumFrames	NumMarkers	Units	OrigDataRate	OrigDataStartFrame	OrigNumFrames						
120	120	84	4	m	120	1	6524						
Frame#	Time	r_acromion			r_humerus_epicondyle			r_radius_styloid			RHAND		
		X1	Y1	Z1	X2	Y2	Z2	X3	Y3	Z3	X4	Y4	Z4
													
1	0	-0.03023	0.8955	0.20795	-0.04091	0.54879	0.24127	0.06845	0.28809	0.29021	0.11282	0.20285	0.25898
2	0.008	-0.03032	0.89545	0.20805	-0.04085	0.54874	0.24133	0.06856	0.2881	0.29023	0.11273	0.20275	0.25906
3	0.017	-0.03039	0.89536	0.20817	-0.04082	0.54868	0.24134	0.06867	0.28811	0.29025	0.11263	0.20264	0.25914
4	0.025	-0.03044	0.89525	0.20829	-0.04082	0.54861	0.24131	0.06878	0.28811	0.29027	0.1125	0.20251	0.25924
5	0.033	-0.03048	0.8951	0.20843	-0.04083	0.54854	0.24126	0.06889	0.28812	0.29028	0.11232	0.20236	0.25934
6	0.042	-0.03047	0.89491	0.20857	-0.04084	0.54848	0.24122	0.06902	0.28813	0.2903	0.11205	0.20217	0.25945
7	0.05	-0.03044	0.89471	0.20871	-0.04084	0.54841	0.24118	0.06914	0.28814	0.29031	0.11174	0.20196	0.25956
8	0.058	-0.03038	0.89452	0.20884	-0.04085	0.54835	0.24115	0.06927	0.28815	0.29032	0.1115	0.2018	0.25965
9	0.067	-0.03031	0.89435	0.20896	-0.04084	0.5483	0.24112	0.06941	0.28817	0.29032	0.11139	0.2017	0.25971
10	0.075	-0.03023	0.89423	0.20905	-0.04082	0.54827	0.2411	0.06955	0.28819	0.29032	0.11136	0.20164	0.25975
11	0.083	-0.03014	0.89414	0.20912	-0.04079	0.54824	0.24108	0.0697	0.28822	0.29031	0.1114	0.20162	0.25976
12	0.092	-0.03004	0.89408	0.20918	-0.04074	0.54823	0.24108	0.06985	0.28826	0.2903	0.1115	0.20164	0.25977
13	0.1	-0.02992	0.89403	0.20921	-0.04067	0.54823	0.24107	0.07001	0.2883	0.29028	0.11163	0.20167	0.25977
14	0.108	-0.02979	0.89401	0.20922	-0.04059	0.54825	0.24107	0.07016	0.28834	0.29027	0.11181	0.20173	0.25976
15	0.117	-0.02967	0.89403	0.20922	-0.04049	0.54827	0.24106	0.07032	0.2884	0.29025	0.11202	0.20181	0.25976
16	0.125	-0.02954	0.89407	0.2092	-0.04038	0.54831	0.24105	0.07047	0.28846	0.29024	0.11227	0.20191	0.25977
17	0.133	-0.0294	0.89412	0.20918	-0.04026	0.54835	0.24104	0.07062	0.28852	0.29024	0.11259	0.20203	0.2598
18	0.142	-0.02924	0.89417	0.20914	-0.04014	0.5484	0.24103	0.07076	0.28859	0.29024	0.11294	0.20217	0.25984
19	0.15	-0.02908	0.89421	0.20908	-0.04001	0.54845	0.24101	0.0709	0.28866	0.29025	0.11325	0.2023	0.25989
20	0.158	-0.0289	0.89426	0.20902	-0.03987	0.54851	0.241	0.07105	0.28873	0.29027	0.11351	0.20241	0.25994
21	0.167	-0.02871	0.8943	0.20894	-0.03973	0.54857	0.24098	0.07119	0.2888	0.29029	0.11372	0.2025	0.26
22	0.175	-0.02851	0.89435	0.20885	-0.03958	0.54863	0.24097	0.07133	0.28888	0.29033	0.11391	0.20258	0.26005
23	0.183	-0.02829	0.89439	0.20875	-0.03942	0.54869	0.24096	0.07148	0.28895	0.29036	0.11407	0.20266	0.26011
24	0.192	-0.02807	0.89444	0.20864	-0.03926	0.54876	0.24096	0.07163	0.28903	0.2904	0.11422	0.20273	0.26017
25	0.2	-0.02784	0.8945	0.20853	-0.03909	0.54883	0.24096	0.07178	0.28911	0.29044	0.11437	0.2028	0.26023
26	0.208	-0.02761	0.89455	0.20842	-0.03892	0.5489	0.24096	0.07194	0.28919	0.29048	0.11451	0.20287	0.26029
27	0.217	-0.02737	0.89461	0.2083	-0.03873	0.54897	0.24097	0.0721	0.28927	0.29052	0.11465	0.20293	0.26034
28	0.225	-0.02712	0.89466	0.20818	-0.03854	0.54904	0.24098	0.07227	0.28934	0.29056	0.11479	0.20299	0.2604
29	0.233	-0.02686	0.89472	0.20806	-0.03834	0.54911	0.241	0.07244	0.28942	0.2906	0.11493	0.20305	0.26045
30	0.242	-0.0266	0.89477	0.20795	-0.03814	0.54918	0.24102	0.07261	0.28949	0.29063	0.11507	0.2031	0.26049
31	0.25	-0.02634	0.89483	0.20783	-0.03792	0.54924	0.24105	0.0728	0.28955	0.29065	0.11521	0.20315	0.26052
32	0.258	-0.02608	0.89488	0.20771	-0.0377	0.5493	0.24109	0.07298	0.28962	0.29067	0.11535	0.20319	0.26055
33	0.267	-0.02583	0.89492	0.20759	-0.03746	0.54936	0.24115	0.07317	0.28969	0.29068	0.11549	0.20324	0.26056
34	0.275	-0.02559	0.89496	0.20748	-0.03721	0.54943	0.24122	0.07337	0.28975	0.29069	0.11564	0.20328	0.26057
35	0.283	-0.02536	0.895	0.20737	-0.03696	0.54949	0.2413	0.07356	0.28981	0.29069	0.11579	0.20331	0.26057
36	0.292	-0.02513	0.89504	0.20726	-0.03671	0.54954	0.24136	0.07377	0.28987	0.29068	0.11595	0.20334	0.26056
37	0.3	-0.02491	0.89506	0.20717	-0.03648	0.54959	0.2414	0.07397	0.28993	0.29067	0.11611	0.20337	0.26054
38	0.308	-0.02469	0.89509	0.20708	-0.03627	0.54962	0.24141	0.07418	0.28998	0.29065	0.11628	0.2034	0.26051
39	0.317	-0.02448	0.89511	0.20699	-0.03606	0.54965	0.2414	0.07439	0.29002	0.29062	0.11645	0.20342	0.26046
40	0.325	-0.02428	0.89513	0.20691	-0.03587	0.54967	0.24138	0.0746	0.29006	0.29058	0.11662	0.20344	0.2604
41	0.333	-0.02409	0.89514	0.20684	-0.03568	0.54968	0.24135	0.07481	0.29009	0.29053	0.11679	0.20344	0.26033
42	0.342	-0.02391	0.89513	0.20677	-0.03551	0.54968	0.24131	0.07503	0.29011	0.29047	0.11697	0.20344	0.26024
43	0.35	-0.02373	0.89511	0.20671	-0.03534	0.54968	0.24127	0.07524	0.29013	0.2904	0.11714	0.20344	0.26013
44	0.358	-0.02355	0.89509	0.20665	-0.03517	0.54966	0.24121	0.07546	0.29014	0.29032	0.11731	0.20342	0.26001
45	0.367	-0.02337	0.89508	0.20659	-0.03501	0.54964	0.24115	0.07567	0.29014	0.29023	0.11748	0.2034	0.25988
46	0.375	-0.0232	0.89505	0.20653	-0.03486	0.54962	0.24109	0.07588	0.29014	0.29013	0.11765	0.20338	0.25974
47	0.383	-0.02302	0.89501	0.20648	-0.03471	0.5496	0.24103	0.07608	0.29013	0.29002	0.11782	0.20335	0.25961
48	0.392	-0.02284	0.89495	0.20643	-0.03457	0.54957	0.24096	0.07628	0.29012	0.28991	0.11798	0.20333	0.25947
49	0.4	-0.02265	0.8949	0.20638	-0.03443	0.54955	0.24089	0.07646	0.29011	0.2898	0.11814	0.2033	0.25934
50	0.408	-0.02246	0.89484	0.20634	-0.0343	0.54952	0.24082	0.07664	0.29009	0.28969	0.11829	0.20328	0.25921
51	0.417	-0.02226	0.89477	0.20629	-0.03417	0.54949	0.24075	0.07682	0.29006	0.28957	0.11843	0.20325	0.25908
52	0.425	-0.02206	0.89469	0.20625	-0.03404	0.54946	0.24067	0.07699	0.29004	0.28944	0.11857	0.20322	0.25895
53	0.433	-0.02185	0.89461	0.20621	-0.03391	0.54943	0.2406	0.07716	0.29001	0.28932	0.1187	0.20318	0.25881
54	0.442	-0.02166	0.89454	0.20617	-0.03378	0.5494	0.24052	0.07732	0.28997	0.28919	0.11883	0.20314	0.25867
55	0.45	-0.02148	0.89448	0.20612	-0.03365	0.54937	0.24045	0.07748	0.28993	0.28906	0.11895	0.20309	0.25853
56	0.458	-0.02131	0.89445	0.20608	-0.03353	0.54934	0.24037	0.07764	0.28988	0.28893	0.11907	0.20303	0.2584
57	0.467	-0.02116	0.89442	0.20603	-0.03341	0.54931	0.2403	0.07779	0.28983	0.28879	0.11918	0.20298	0.25826
58	0.475	-0.02101	0.89441	0.20598	-0.03329	0.54928	0.24022	0.07793	0.28978	0.28866	0.11928	0.20293	0.25812
59	0.483	-0.02088	0.89442	0.20594	-0.03318	0.54925	0.24015	0.07806	0.28973	0.28853	0.11938	0.20287	0.25798
60	0.492	-0.02075	0.89444	0.20589	-0.03307	0.54922	0.24007	0.07818	0.28968	0.2884	0.11948	0.20283	0.25785
61	0.5	-0.02064	0.89448	0.20584	-0.03297	0.54918	0.24	0.0783	0.28964	0.28829	0.11958	0.20278	0.25773
62	0.508	-0.02052	0.89449	0.2058	-0.03288	0.54915	0.23992	0.0784	0.2896	0.28819	0.11968	0.20274	0.25762
63	0.517	-0.02041	0.89449	0.20575	-0.0328	0.54912	0.23985	0.07849	0.28955	0.28809	0.11977	0.20271	0.25752
64	0.525	-0.02029	0.89448	0.2057	-0.03272	0.54909	0.23978	0.07858	0.28951	0.288	0.11986	0.20268	0.25743
65	0.533	-0.02017	0.89446	0.20566	-0.03264	0.54906	0.2397	0.07866	0.28947	0.28791	0.11994	0.20265	0.25734
66	0.542	-0.02005	0.89444	0.20561	-0.03256	0.54903	0.23963	0.07873	0.28943	0.28783	0.12002	0.20262	0.25726
67	0.55	-0.01994	0.89443	0.20556	-0.03249	0.54899	0.23956	0.07879	0.28939	0.28776	0.12009	0.20258	0.25719
68	0.558	-0.01982	0.89439	0.20552	-0.03241	0.54897	0.2395	0.07884	0.28935	0.28769	0.12014	0.20255	0.25712
69	0.567	-0.01971	0.89434	0.20548	-0.03233	0.54894	0.23943	0.07888	0.28931	0.28762	0.12019	0.20251	0.25705
70	0.575	-0.01959	0.89429	0.20545	-0.03226	0.54891	0.23936	0.0789	0.28927	0.28756	0.12022	0.20247	0.25699
71	0.583	-0.01948	0.89426	0.2054	-0.03219	0.54889	0.23929	0.07891	0.28923	0.2875	0.12024	0.20243	0.25695
72	0.592	-0.01937	0.89425	0.20535	-0.03212	0.54887	0.23922	0.0789	0.28919	0.28745	0.12025	0.20239	0.25691
73	0.6	-0.01927	0.89424	0.2053	-0.03207	0.54885	0.23914	0.07887	0.28915	0.2874	0.12024	0.20235	0.25687
74	0.608	-0.01917	0.89422	0.20526	-0.03202	0.54883	0.23906	0.07882	0.28911	0.28735	0.12021	0.20231	0.25685
75	0.617	-0.01907	0.89422	0.20521	-0.03197	0.54881	0.23898	0.07875	0.28906	0.28731	0.12016	0.20226	0.25683
76	0.625	-0.01897	0.89422	0.20516	-0.03193	0.5488	0.23889	0.07867	0.28902	0.28728	0.12009	0.20221	0.25681
77	0.633	-0.01887	0.89422	0.20511	-0.03189	0.54879	0.2388	0.07857	0.28897	0.28724	0.11998	0.20216	0.25679
78	0.642	-0.01878	0.89422	0.20506	-0.03185	0.54878	0.23871	0.07847	0.28893	0.28721	0.11982	0.20209	0.25676
79	0.65	-0.01868	0.89422	0.20502	-0.03182	0.54878	0.23862	0.07835	0.28888	0.28718	0.11961	0.20201	0.25672
80	0.658	-0.01859	0.89422	0.20498	-0.03179	0.54878	0.23853	0.07823	0.28883	0.28715	0.11937	0.20192	0.25668
81	0.667	-0.01851	0.89422	0.20494	-0.03176	0.54877	0.23843	0.0781	0.28878	0.28713	0.11917	0.20184	0.25663
82	0.675	-0.01843	0.89423	0.2049	-0.03174	0.54877	0.23833	0.07796	0.28873	0.2871	0.11905	0.20179	0.25658
83	0.683	-0.01835	0.89424	0.20485	-0.03174	0.54876	0.23823	0.07782	0.28867	0.28707	0.11902	0.20178	0.25652
84	0.692	-0.01828	0.89426	0.2048	-0.03174	0.54875	0.23812	0.07766	0.28861	0.28704	0.11908	0.20179	0.25646
